# xmcd
#
# Track frame offsets:
#	182
#	12160
#	40427
#	69722
#	96580
#	119495
#	148062
#	174322
#	211712
#	235575
#
# Disc length: 3477 seconds
#
# Revision: 0
# Processed by: cddbd v1.5.2PL0 Copyright (c) Steve Scherf et al.
# Submitted via: dBpowerAMP V4.0
#
DISCID=8b0d930a
DTITLE=KAKOLI - Prem Bahkti
DYEAR=1900
DGENRE=
TTITLE0=Shiva Bandana
TTITLE1=Raghvbar Tumko Meri Laaj
TTITLE2=Abe May Kone Vpai Karv
TTITLE3=Rinijhini Nupur Baje
TTITLE4=Narayan Ko Bhajan Karo
TTITLE5=Itni Binati Suno Meri
TTITLE6=Phule Phule Bhromora
TTITLE7=Swaon Ki Ritu
TTITLE8=Hari Hari Japalino
TTITLE9=Sohbato Hi May Apan Mandir Me
EXTD=Album KAKOLI PREM BHAKTI\nProduced by NADESWAR Records
EXTT0=
EXTT1=
EXTT2=
EXTT3=
EXTT4=
EXTT5=
EXTT6=
EXTT7=
EXTT8=
EXTT9=
PLAYORDER=
